<svg xmlns="http://www.w3.org/2000/svg" width="22" height="20" viewBox="0 0 22 20"><g><g><path fill="#b8b8b8" d="M5.404 4.797V1.886c0-.641.508-1.16 1.136-1.16.628 0 1.136.519 1.136 1.16v2.91c0 .642-.508 1.162-1.136 1.162-.628 0-1.136-.52-1.136-1.161zm8.68 0V1.886c0-.641.51-1.16 1.137-1.16.628 0 1.136.519 1.136 1.16v2.91c0 .642-.508 1.162-1.136 1.162-.628 0-1.137-.52-1.137-1.161zm7.11-1.463v15.369a.92.92 0 0 1-.91.929H1.464a.92.92 0 0 1-.909-.93V3.335c0-.513.407-.928.91-.928h2.094c.502 0 .91.415.91.928a.919.919 0 0 1-.91.928H2.374v3.773h17V4.262H18.19a.919.919 0 0 1-.909-.928c0-.513.407-.928.91-.928h2.094c.502 0 .91.415.91.928zm-1.82 14.44V9.428h-17v8.346zM8.552 3.334c0-.513.407-.928.91-.928h2.827c.502 0 .91.415.91.928a.919.919 0 0 1-.91.928H9.46a.919.919 0 0 1-.909-.928z"/><path fill="#717171" d="M5.404 4.797V1.886c0-.641.508-1.16 1.136-1.16.628 0 1.136.519 1.136 1.16v2.91c0 .642-.508 1.162-1.136 1.162-.628 0-1.136-.52-1.136-1.161zm8.68 0V1.886c0-.641.51-1.16 1.137-1.16.628 0 1.136.519 1.136 1.16v2.91c0 .642-.508 1.162-1.136 1.162-.628 0-1.137-.52-1.137-1.161zm7.11-1.463v15.369a.92.92 0 0 1-.91.929H1.464a.92.92 0 0 1-.909-.93V3.335c0-.513.407-.928.91-.928h2.094c.502 0 .91.415.91.928a.919.919 0 0 1-.91.928H2.374v3.773h17V4.262H18.19a.919.919 0 0 1-.909-.928c0-.513.407-.928.91-.928h2.094c.502 0 .91.415.91.928zm-1.82 14.44V9.428h-17v8.346zM8.552 3.334c0-.513.407-.928.91-.928h2.827c.502 0 .91.415.91.928a.919.919 0 0 1-.91.928H9.46a.919.919 0 0 1-.909-.928z"/></g></g></svg>