<svg xmlns="http://www.w3.org/2000/svg" width="14" height="13" viewBox="0 0 14 13"><g><g><path fill="#b8b8b8" d="M13.127.889v7.668c0 .338-.26.612-.579.612h-1.844l-2.355 2.928a.565.565 0 0 1-.64.177.612.612 0 0 1-.379-.574V9.169H.58c-.32 0-.578-.274-.578-.612V.889C0 .551.26.277.579.277h11.97c.319 0 .578.274.578.612zm-1.157.612H1.157v6.443h6.751c.32 0 .579.275.579.613v1.48l1.51-1.877a.566.566 0 0 1 .44-.216h1.533zM2.657 3.627c0-.338.258-.612.578-.612H7.36c.32 0 .578.274.578.612 0 .338-.259.612-.578.612H3.235c-.32 0-.578-.274-.578-.612zm6.259.433a.636.636 0 0 1 0-.866.565.565 0 0 1 .407-.18c.153 0 .302.066.41.18a.636.636 0 0 1 0 .866.563.563 0 0 1-.41.179c-.15 0-.3-.064-.407-.179z"/></g></g></svg>