<svg xmlns="http://www.w3.org/2000/svg" width="21" height="20" viewBox="0 0 21 20"><g><g><path fill="#b8b8b8" d="M20.87 1.398v12.06c0 .533-.407.963-.91.963h-2.9l-3.705 4.605a.888.888 0 0 1-.692.34.856.856 0 0 1-.314-.06.963.963 0 0 1-.596-.904v-3.98H1.134c-.502 0-.91-.432-.91-.964V1.398c0-.531.408-.963.91-.963h18.827c.502 0 .91.432.91.963zm-1.819.963H2.044v10.134h10.619c.502 0 .91.432.91.963v2.328l2.374-2.952a.89.89 0 0 1 .692-.339h2.412zM4.402 5.705c0-.532.407-.963.91-.963h6.49c.502 0 .91.431.91.963s-.408.963-.91.963h-6.49c-.503 0-.91-.43-.91-.963zm9.845.68a.988.988 0 0 1-.266-.68c0-.253.095-.501.266-.682a.888.888 0 0 1 .64-.282c.242 0 .476.104.644.282a1.002 1.002 0 0 1 0 1.362.886.886 0 0 1-.643.282.883.883 0 0 1-.641-.282z"/><path fill="#717171" d="M20.87 1.398v12.06c0 .533-.407.963-.91.963h-2.9l-3.705 4.605a.888.888 0 0 1-.692.34.856.856 0 0 1-.314-.06.963.963 0 0 1-.596-.904v-3.98H1.134c-.502 0-.91-.432-.91-.964V1.398c0-.531.408-.963.91-.963h18.827c.502 0 .91.432.91.963zm-1.819.963H2.044v10.134h10.619c.502 0 .91.432.91.963v2.328l2.374-2.952a.89.89 0 0 1 .692-.339h2.412zM4.402 5.705c0-.532.407-.963.91-.963h6.49c.502 0 .91.431.91.963s-.408.963-.91.963h-6.49c-.503 0-.91-.43-.91-.963zm9.845.68a.988.988 0 0 1-.266-.68c0-.253.095-.501.266-.682a.888.888 0 0 1 .64-.282c.242 0 .476.104.644.282a1.002 1.002 0 0 1 0 1.362.886.886 0 0 1-.643.282.883.883 0 0 1-.641-.282z"/></g></g></svg>