<?xml version="1.0"?><svg fill="#2a5885" xmlns="http://www.w3.org/2000/svg"  viewBox="0 0 50 50" width="48px" height="48px">    <path d="M 25 2 C 12.318 2 2 12.318 2 25 C 2 37.682 12.318 48 25 48 C 37.682 48 48 37.682 48 25 C 48 12.318 37.682 2 25 2 z M 17 14 L 24.779297 14 C 27.181297 14 32.980469 14.071063 32.980469 19.039062 C 32.980469 21.999063 30.959063 23.299688 30.039062 23.679688 L 30.039062 23.800781 C 32.417063 23.800781 35 26.289062 35 29.039062 C 35 31.999063 33.750781 36 25.800781 36 L 17 36 L 17 14 z M 23 18 L 23 22 C 23 22 24.838484 21.980469 25.146484 21.980469 C 26.864484 21.980469 27 20.494672 27 20.138672 C 27 19.908672 26.990078 18 25.080078 18 L 23 18 z M 23 26 L 23 32 C 23 32 25.5 31.955078 26 31.955078 C 28.594 31.955078 29 29.735594 29 28.933594 C 29 27.713594 28.343797 26.021484 26.091797 26.021484 C 25.555797 26.021484 23 26 23 26 z"/></svg>